<?xml version="1.0" encoding="utf-8"?>
<!-- Generator: Adobe Illustrator 22.0.0, SVG Export Plug-In . SVG Version: 6.00 Build 0)  -->
<svg version="1.1" id="Layer_1" xmlns="http://www.w3.org/2000/svg" xmlns:xlink="http://www.w3.org/1999/xlink" x="0px" y="0px"
	 viewBox="0 0 42.5 56.7" style="enable-background:new 0 0 42.5 56.7;" xml:space="preserve">
<style type="text/css">
	.st0{fill:#FFFFFF;}
	.st1{fill:#010101;}
	.st2{fill:#C63F3E;}
	.st3{fill:none;stroke:#C63F3E;stroke-width:0.5669;stroke-linecap:round;stroke-miterlimit:10;}
</style>
<path class="st1" d="M6.7,34.3v2.2l15.1,7.3c0.2,0.1,0.4,0.1,0.5,0l14.8-7.6v-2.2l-14.9,7.5c-0.2,0.1-0.4,0.1-0.5,0L6.7,34.3z"/>
<path class="st1" d="M37.1,32.5L22.3,40c-0.2,0.1-0.4,0.1-0.5,0L6.7,32.6v-2.2l14.9,7.3c0.2,0.1,0.4,0.1,0.5,0l11.9-6
	c0,0,2.5,1.7,3.1-0.3V32.5z"/>
<path class="st1" d="M6.7,26.5v2.2L21.8,36c0.2,0.1,0.4,0.1,0.5,0l10.5-5.4l-1.2-1.5l-9.5,4.7c-0.2,0.1-0.4,0.1-0.5,0L6.7,26.5z"/>
<path class="st1" d="M15.9,26.8l5.7,2.9c0.2,0.1,0.4,0.1,0.5,0l3.7-1.9c0,0,2.6,0.9,4.1-0.8l0.5,0.7l-8.2,4.2
	c-0.2,0.1-0.4,0.1-0.5,0l-8.5-4.2C13.2,27.6,14.9,27.5,15.9,26.8z"/>
<g>
	<path class="st1" d="M22.6,20.5C22.6,20.4,22.6,20.4,22.6,20.5c0.2-0.3,0.5-0.5,0.9-0.7c0,0,1.6-0.2,2.3,1c0.2,0.3,0.5,0.3,0.8,0.2
		c0.3-0.2,0.3-0.5,0.2-0.8c-1.2-1.9-3.3-1.6-3.6-1.5c-0.4,0.2-0.7,0.4-1,0.6c-1-0.8-2-1.2-2.9-1.1c-1.2,0.1-1.9,0.9-1.9,0.9
		c-0.2,0.2-0.2,0.6,0.1,0.8c0.2,0.2,0.6,0.2,0.8-0.1c0,0,0.4-0.5,1.1-0.5c0.7,0,1.4,0.3,2.1,0.9c-0.4,0.7-0.5,1.5-0.4,1.9
		c0,0.3,0.3,0.5,0.5,0.5c0,0,0,0,0.1,0c0.3,0,0.5-0.3,0.5-0.6C22.1,22,22.1,21.2,22.6,20.5C22.6,20.5,22.6,20.5,22.6,20.5z"/>
	<path class="st1" d="M36.1,25.1c0-0.1,0-0.2,0-0.2c0.2-1.4,0.5-2.2,0.6-2.6c0.1-0.4,0.1-0.9,0-1.3c-0.4-1.2-1.2-2.2-1.6-2.7
		c-0.2-0.3-0.5-0.5-0.9-0.6l-1.1-0.4c-0.2-0.1-0.3-0.2-0.5-0.4L31.3,15c-0.3-0.4-0.7-0.7-1.2-0.8l-3.6-0.8c-0.4-0.1-0.8-0.1-1.2,0.1
		L24,13.9l-1.4-1c-0.4-0.3-0.8-0.4-1.2-0.4c0,0,0,0,0,0c-1.4,0-3.4,0.3-4.4,0.5c-0.6,0.1-1.2,0.5-1.5,1L15,14.8l-1.2-0.3
		c-0.6-0.2-1.3,0-1.9,0.4l-2.3,1.9c-0.6,0.5-0.9,1.3-0.8,2.1L9,19.7c-0.1,0-0.2,0.1-0.4,0.1l-1.1,0.9l-0.6,3.1
		c-0.1,0.7,0.1,1.5,0.6,2l0.5,0.5c0.4,0.4,0.9,0.6,1.5,0.6c0,0,0,0,0.1,0l3.7-0.1c0.7,0,1.9-0.2,2.5-1c1.4,1.3,4.5,1.3,5.1,1.3
		c0.4,0.1,0.8,0.1,1.2,0.1c1.3,0,2.3-0.5,2.8-0.9c0.6,0.5,1.5,0.9,2.5,0.9c0.6,0,1.2-0.1,1.8-0.5c0.3-0.2,0.3-0.5,0.2-0.7
		c-0.2-0.3-0.5-0.3-0.7-0.2c-1.3,0.8-2.5,0.1-3.1-0.3c0-0.1,0.1-0.2,0.1-0.3c0.6-2.1-0.7-3.6-1.5-4.1c-0.3-0.2-0.6-0.1-0.7,0.2
		c-0.2,0.3-0.1,0.6,0.2,0.7c0.1,0,1.6,1,1.1,2.9c-0.1,0.2-0.2,0.3-0.3,0.5c-0.5,0.4-1.6,1.1-3.3,0.7l-0.1,0l-0.1,0
		c-1.1,0.1-4.5-0.1-4.8-1.6c0,0-0.2-0.9,0.2-1.4c0.3-0.4,0.8-0.6,1.5-0.7c0.3,0.1,1.5,0.5,1.8,1.8c0.1,0.3,0.4,0.5,0.7,0.4
		c0.3-0.1,0.5-0.4,0.4-0.7c-0.5-2.1-2.6-2.6-2.7-2.6l-0.1,0l-0.1,0c-1.1,0.1-1.9,0.4-2.4,1.1c-0.7,1-0.4,2.3-0.4,2.3
		c0,0,0,0.1,0.1,0.1c0,0.1-0.1,0.1-0.1,0.2c-0.1,0.8-1.7,0.8-1.7,0.8l-3.7,0.1c-0.3,0-0.5-0.1-0.7-0.3L8.3,25
		c-0.3-0.2-0.4-0.6-0.3-1l0.5-2.7l0.6-0.5c0.8-0.3,1.2-0.1,1.4,0.1c-0.1,0.1-0.2,0.2-0.2,0.3c0,0.1-0.7,1.3-0.1,2.7
		c0.1,0.2,0.3,0.3,0.5,0.3c0.1,0,0.1,0,0.2,0c0.3-0.1,0.4-0.4,0.3-0.7c-0.3-0.9,0.1-1.7,0.1-1.7c0,0,0,0,0,0c1.1-1.6,2.7-1,2.8-1
		c0.3,0.1,0.6,0,0.7-0.3c0.1-0.3,0-0.6-0.3-0.7c-0.2-0.1-0.6-0.2-0.9-0.2c0.2-1.5,1.5-1.9,1.6-1.9c0.3-0.1,0.5-0.4,0.4-0.7
		c-0.1-0.3-0.4-0.5-0.7-0.4c-0.8,0.2-2.3,1.1-2.5,3.1c-0.3,0.1-0.7,0.2-1,0.5c-0.3-0.3-0.7-0.5-1.2-0.6l-0.2-0.9
		c-0.1-0.4,0.1-0.8,0.4-1l2.3-1.9c0.3-0.2,0.6-0.3,0.9-0.2l2,0.5l0.9-1.5c0.2-0.3,0.4-0.5,0.7-0.5c1-0.2,2.9-0.4,4.2-0.4h0
		c0.2,0,0.4,0.1,0.6,0.2l1.9,1.3l1.8-0.6c0.2-0.1,0.4-0.1,0.6,0l3.6,0.8c0.2,0.1,0.5,0.2,0.6,0.4l1.3,1.7c0.2,0.3,0.6,0.6,1,0.7
		l1.1,0.4c0.2,0.1,0.3,0.2,0.4,0.3c0.4,0.5,1,1.4,1.4,2.4c0.1,0.2,0,0.4,0,0.6c-0.2,0.5-0.4,1.3-0.7,2.8c0,0.2,0,0.3,0,0.5
		c0,0.9,0.2,3.2,0.6,4c0.1,0.4,0.2,0.8,0.1,1.1c0,0-0.1,0-0.1-0.1c-1-0.5-4.4-5.1-6.4-7.8c0,0-0.3-0.3-0.2-0.7
		c0.1-0.5,0.5-0.9,1.2-1.4c0.5-0.1,1.3,0,1.6,0.4c0.3,0.3,0.2,1-0.3,2c-0.1,0.3,0,0.6,0.3,0.7c0.3,0.1,0.6,0,0.7-0.2
		c0.7-1.4,0.7-2.4,0.2-3.1c-0.8-1.1-2.6-0.8-2.8-0.8l-0.2,0.1c-0.1,0-0.1,0.1-0.2,0.1c-0.1-0.4-0.1-0.8-0.1-1.2
		c-0.1-1-0.4-1.7-1-2.1c-0.9-0.6-2-0.2-2-0.2c-0.3,0.1-0.4,0.4-0.3,0.7c0.1,0.3,0.4,0.4,0.7,0.3c0,0,0.6-0.2,1.1,0.1
		c0.3,0.2,0.5,0.6,0.5,1.1c0,0.1-0.1,1.2,0.2,2c-0.4,0.4-0.7,0.9-0.8,1.4c-0.1,0.9,0.4,1.6,0.4,1.6c0.5,0.7,5.2,7.3,6.7,8.1
		c0.3,0.2,0.6,0.2,0.8,0.2c0.3,0,0.4-0.1,0.6-0.2c0.6-0.5,0.4-1.8,0.2-2.4C36.3,28.2,36.1,26.4,36.1,25.1z"/>
	<path class="st1" d="M16.8,16c-0.3-0.1-0.6,0-0.7,0.3c-0.1,0.3,0,0.6,0.3,0.7c0,0,0.6,0.2,1.4,0.2c0.6,0,1.4-0.1,2.1-0.6
		c0.1,0.1,0.3,0.3,0.5,0.4c0.5,0.4,1.2,0.6,1.9,0.6c0.4,0,0.8-0.1,1.2-0.2c0.3-0.1,0.5-0.4,0.4-0.7c-0.1-0.3-0.4-0.5-0.7-0.4
		c-0.9,0.2-1.7,0.1-2.3-0.2c-0.2-0.2-0.4-0.3-0.5-0.5c0,0,0,0,0,0c0,0,0,0,0,0C20.1,15,20,14.4,20,14.3c0-0.3-0.3-0.5-0.6-0.5
		c-0.3,0-0.5,0.3-0.5,0.6c0,0,0.1,0.6,0.4,1.3C18.1,16.4,16.9,16,16.8,16z"/>
</g>
</svg>
