<?xml version="1.0" encoding="UTF-8" standalone="no" ?>
<!DOCTYPE svg PUBLIC "-//W3C//DTD SVG 1.1//EN" "http://www.w3.org/Graphics/SVG/1.1/DTD/svg11.dtd">
<svg xmlns="http://www.w3.org/2000/svg" xmlns:xlink="http://www.w3.org/1999/xlink" version="1.1" width="500" height="500" viewBox="0 0 500 500" xml:space="preserve">
<desc>Created with Fabric.js 4.6.0</desc>
<defs>
</defs>
<g transform="matrix(1 0 0 1 250 250)" id="4xrjfsKvYOZw3zsMvReoD"  >
<g style="" vector-effect="non-scaling-stroke"   >
		<g transform="matrix(6.33 0 0 6.33 -13.6 19.64)" id="umK2IulBn9jbihYDGnqDZ"  >
<linearGradient id="SVGID_1598" gradientUnits="userSpaceOnUse" gradientTransform="matrix(1 0 0 1 6.7 26.5)"  x1="0" y1="4.787500000000001" x2="26.099999999999998" y2="4.787500000000001">
<stop offset="0%" style="stop-color:#42E695;stop-opacity: 1"/>
<stop offset="50%" style="stop-color:#66CED3;stop-opacity: 1"/>
<stop offset="100%" style="stop-color:#3BB2B8;stop-opacity: 1"/>
</linearGradient>
<path style="stroke: none; stroke-width: 1; stroke-dasharray: none; stroke-linecap: butt; stroke-dashoffset: 0; stroke-linejoin: miter; stroke-miterlimit: 4; fill: url(#SVGID_1598); fill-rule: nonzero; opacity: 1;" vector-effect="non-scaling-stroke"  transform=" translate(-19.75, -31.29)" d="M 6.7 26.5 L 6.7 28.7 L 21.8 36 C 22 36.1 22.2 36.1 22.3 36 L 32.8 30.6 L 31.599999999999998 29.1 L 22.099999999999998 33.800000000000004 C 21.9 33.900000000000006 21.7 33.900000000000006 21.599999999999998 33.800000000000004 L 6.7 26.5 z" stroke-linecap="round" />
</g>
		<g transform="matrix(6.33 0 0 6.33 0 44.63)" id="eVf2uaNXt8XFNrV-RYtNU"  >
<linearGradient id="SVGID_1605" gradientUnits="userSpaceOnUse" gradientTransform="matrix(1 0 0 1 6.7 30.4)"  x1="0" y1="4.8375" x2="30.400000000000002" y2="4.8375">
<stop offset="0%" style="stop-color:#42E695;stop-opacity: 1"/>
<stop offset="50%" style="stop-color:#66CED3;stop-opacity: 1"/>
<stop offset="100%" style="stop-color:#3BB2B8;stop-opacity: 1"/>
</linearGradient>
<path style="stroke: none; stroke-width: 1; stroke-dasharray: none; stroke-linecap: butt; stroke-dashoffset: 0; stroke-linejoin: miter; stroke-miterlimit: 4; fill: url(#SVGID_1605); fill-rule: nonzero; opacity: 1;" vector-effect="non-scaling-stroke"  transform=" translate(-21.9, -35.24)" d="M 37.1 32.5 L 22.3 40 C 22.1 40.1 21.900000000000002 40.1 21.8 40 L 6.7 32.6 L 6.7 30.400000000000002 L 21.6 37.7 C 21.8 37.800000000000004 22 37.800000000000004 22.1 37.7 L 34 31.700000000000003 C 34 31.700000000000003 36.5 33.400000000000006 37.1 31.400000000000002 L 37.1 32.5 z" stroke-linecap="round" />
</g>
		<g transform="matrix(6.33 0 0 6.33 0 68.05)" id="oKCX7E7C12HhxvTuHRqJ1"  >
<linearGradient id="SVGID_1612" gradientUnits="userSpaceOnUse" gradientTransform="matrix(1 0 0 1 6.7 34)"  x1="0" y1="4.9375000000000036" x2="30.400000000000002" y2="4.9375000000000036">
<stop offset="0%" style="stop-color:#42E695;stop-opacity: 1"/>
<stop offset="50%" style="stop-color:#66CED3;stop-opacity: 1"/>
<stop offset="100%" style="stop-color:#3BB2B8;stop-opacity: 1"/>
</linearGradient>
<path style="stroke: none; stroke-width: 1; stroke-dasharray: none; stroke-linecap: butt; stroke-dashoffset: 0; stroke-linejoin: miter; stroke-miterlimit: 4; fill: url(#SVGID_1612); fill-rule: nonzero; opacity: 1;" vector-effect="non-scaling-stroke"  transform=" translate(-21.9, -38.94)" d="M 6.7 34.3 L 6.7 36.5 L 21.8 43.8 C 22 43.9 22.2 43.9 22.3 43.8 L 37.1 36.199999999999996 L 37.1 33.99999999999999 L 22.200000000000003 41.49999999999999 C 22.000000000000004 41.599999999999994 21.800000000000004 41.599999999999994 21.700000000000003 41.49999999999999 L 6.7 34.3 z" stroke-linecap="round" />
</g>
		<g transform="matrix(6.33 0 0 6.33 1.01 -49.34)" id="KqG3TPeKUC5GEjcdNNmRp"  >
<linearGradient id="SVGID_1584" gradientUnits="userSpaceOnUse" gradientTransform="matrix(1 0 0 1 17.26 18.18)"  x1="0" y1="2.2075507653592528" x2="9.59919531247515" y2="2.2075507653592528">
<stop offset="0%" style="stop-color:#42E695;stop-opacity: 1"/>
<stop offset="50%" style="stop-color:#66CED3;stop-opacity: 1"/>
<stop offset="100%" style="stop-color:#3BB2B8;stop-opacity: 1"/>
</linearGradient>
<path style="stroke: none; stroke-width: 1; stroke-dasharray: none; stroke-linecap: butt; stroke-dashoffset: 0; stroke-linejoin: miter; stroke-miterlimit: 4; fill: url(#SVGID_1584); fill-rule: nonzero; opacity: 1;" vector-effect="non-scaling-stroke"  transform=" translate(-22.06, -20.39)" d="M 22.6 20.5 C 22.6 20.4 22.6 20.4 22.6 20.5 C 22.8 20.2 23.1 20 23.5 19.8 C 23.5 19.8 25.1 19.6 25.8 20.8 C 26 21.1 26.3 21.1 26.6 21 C 26.900000000000002 20.8 26.900000000000002 20.5 26.8 20.2 C 25.6 18.3 23.5 18.599999999999998 23.2 18.7 C 22.8 18.9 22.5 19.099999999999998 22.2 19.3 C 21.2 18.5 20.2 18.1 19.3 18.2 C 18.1 18.3 17.400000000000002 19.099999999999998 17.400000000000002 19.099999999999998 C 17.200000000000003 19.299999999999997 17.200000000000003 19.7 17.500000000000004 19.9 C 17.700000000000003 20.099999999999998 18.100000000000005 20.099999999999998 18.300000000000004 19.799999999999997 C 18.300000000000004 19.799999999999997 18.700000000000003 19.299999999999997 19.400000000000006 19.299999999999997 C 20.100000000000005 19.299999999999997 20.800000000000004 19.599999999999998 21.500000000000007 20.199999999999996 C 21.10000000000001 20.899999999999995 21.000000000000007 21.699999999999996 21.10000000000001 22.099999999999994 C 21.10000000000001 22.399999999999995 21.40000000000001 22.599999999999994 21.60000000000001 22.599999999999994 C 21.60000000000001 22.599999999999994 21.60000000000001 22.599999999999994 21.70000000000001 22.599999999999994 C 22.00000000000001 22.599999999999994 22.20000000000001 22.299999999999994 22.20000000000001 21.999999999999993 C 22.1 22 22.1 21.2 22.6 20.5 C 22.6 20.5 22.6 20.5 22.6 20.5 z" stroke-linecap="round" />
</g>
		<g transform="matrix(6.33 0 0 6.33 -0.63 7.61)" id="WTMsrESyk7O8Vn31bihFN"  >
<linearGradient id="SVGID_1591" gradientUnits="userSpaceOnUse" gradientTransform="matrix(1 0 0 1 -8.6 -2.59)"  x1="0" y1="2.5875000000000004" x2="17.2" y2="2.5875000000000004">
<stop offset="0%" style="stop-color:#42E695;stop-opacity: 1"/>
<stop offset="50%" style="stop-color:#66CED3;stop-opacity: 1"/>
<stop offset="100%" style="stop-color:#3BB2B8;stop-opacity: 1"/>
</linearGradient>
<path style="stroke: none; stroke-width: 1; stroke-dasharray: none; stroke-linecap: butt; stroke-dashoffset: 0; stroke-linejoin: miter; stroke-miterlimit: 4; fill: url(#SVGID_1591); fill-rule: nonzero; opacity: 1;" vector-effect="non-scaling-stroke"  transform=" translate(0, 0)" d="M -5.9 -2.5875 L -0.20000000000000018 0.3125 C -1.6653345369377348e-16 0.4125 0.19999999999999984 0.4125 0.2999999999999998 0.3125 L 4 -1.5875 C 4 -1.5875 6.6 -0.6874999999999999 8.1 -2.3875 L 8.6 -1.6875000000000002 L 0.40000000000000036 2.5125 C 0.20000000000000034 2.6125000000000003 3.3306690738754696e-16 2.6125000000000003 -0.09999999999999964 2.5125 L -8.6 -1.6875 C -8.6 -1.7875 -6.8999999999999995 -1.8875 -5.8999999999999995 -2.5875 z" stroke-linecap="round" />
</g>
		<g transform="matrix(6.33 0 0 6.33 -0.5 -39.15)" id="-IUOfdXPNF_Exfo8td8Bp"  >
<linearGradient id="SVGID_1565" gradientUnits="userSpaceOnUse" gradientTransform="matrix(1 0 0 1 6.88 12.5)"  x1="0" y1="9.500000000000005" x2="29.9" y2="9.500000000000005">
<stop offset="0%" style="stop-color:#42E695;stop-opacity: 1"/>
<stop offset="50%" style="stop-color:#66CED3;stop-opacity: 1"/>
<stop offset="100%" style="stop-color:#3BB2B8;stop-opacity: 1"/>
</linearGradient>
<path style="stroke: none; stroke-width: 1; stroke-dasharray: none; stroke-linecap: butt; stroke-dashoffset: 0; stroke-linejoin: miter; stroke-miterlimit: 4; fill: url(#SVGID_1565); fill-rule: nonzero; opacity: 1;" vector-effect="non-scaling-stroke"  transform=" translate(-21.82, -22)" d="M 36.1 25.1 C 36.1 25 36.1 24.900000000000002 36.1 24.900000000000002 C 36.300000000000004 23.500000000000004 36.6 22.700000000000003 36.7 22.3 C 36.800000000000004 21.900000000000002 36.800000000000004 21.400000000000002 36.7 21 C 36.300000000000004 19.8 35.5 18.8 35.1 18.3 C 34.9 18 34.6 17.8 34.2 17.7 L 33.1 17.3 C 32.9 17.2 32.800000000000004 17.1 32.6 16.900000000000002 L 31.3 15 C 31 14.6 30.6 14.3 30.1 14.2 L 26.5 13.399999999999999 C 26.1 13.299999999999999 25.7 13.299999999999999 25.3 13.499999999999998 L 24 13.9 L 22.6 12.9 C 22.200000000000003 12.6 21.8 12.5 21.400000000000002 12.5 C 21.400000000000002 12.5 21.400000000000002 12.5 21.400000000000002 12.5 C 20.000000000000004 12.5 18.000000000000004 12.8 17 13 C 16.4 13.1 15.8 13.5 15.5 14 L 15 14.8 L 13.8 14.5 C 13.200000000000001 14.3 12.5 14.5 11.9 14.9 L 9.600000000000001 16.8 C 9.000000000000002 17.3 8.700000000000001 18.1 8.8 18.900000000000002 L 9 19.7 C 8.9 19.7 8.8 19.8 8.6 19.8 L 7.5 20.7 L 6.9 23.8 C 6.800000000000001 24.5 7 25.3 7.5 25.8 L 8 26.3 C 8.4 26.7 8.9 26.900000000000002 9.5 26.900000000000002 C 9.5 26.900000000000002 9.5 26.900000000000002 9.6 26.900000000000002 L 13.3 26.8 C 14 26.8 15.200000000000001 26.6 15.8 25.8 C 17.2 27.1 20.3 27.1 20.9 27.1 C 21.299999999999997 27.200000000000003 21.7 27.200000000000003 22.099999999999998 27.200000000000003 C 23.4 27.200000000000003 24.4 26.700000000000003 24.9 26.300000000000004 C 25.5 26.800000000000004 26.4 27.200000000000003 27.4 27.200000000000003 C 28 27.200000000000003 28.599999999999998 27.1 29.2 26.700000000000003 C 29.5 26.500000000000004 29.5 26.200000000000003 29.4 26.000000000000004 C 29.2 25.700000000000003 28.9 25.700000000000003 28.7 25.800000000000004 C 27.4 26.600000000000005 26.2 25.900000000000006 25.599999999999998 25.500000000000004 C 25.599999999999998 25.400000000000002 25.7 25.300000000000004 25.7 25.200000000000003 C 26.3 23.1 25 21.6 24.2 21.1 C 23.9 20.900000000000002 23.599999999999998 21 23.5 21.3 C 23.3 21.6 23.4 21.900000000000002 23.7 22 C 23.8 22 25.3 23 24.8 24.9 C 24.7 25.099999999999998 24.6 25.2 24.5 25.4 C 24 25.799999999999997 22.9 26.5 21.2 26.099999999999998 L 21.099999999999998 26.099999999999998 L 20.999999999999996 26.099999999999998 C 19.899999999999995 26.2 16.499999999999996 25.999999999999996 16.199999999999996 24.499999999999996 C 16.199999999999996 24.499999999999996 15.999999999999996 23.599999999999998 16.399999999999995 23.099999999999998 C 16.699999999999996 22.7 17.199999999999996 22.499999999999996 17.899999999999995 22.4 C 18.199999999999996 22.5 19.399999999999995 22.9 19.699999999999996 24.2 C 19.799999999999997 24.5 20.099999999999994 24.7 20.399999999999995 24.599999999999998 C 20.699999999999996 24.499999999999996 20.899999999999995 24.2 20.799999999999994 23.9 C 20.299999999999994 21.799999999999997 18.199999999999992 21.299999999999997 18.099999999999994 21.299999999999997 L 17.999999999999993 21.299999999999997 L 17.89999999999999 21.299999999999997 C 16.79999999999999 21.4 15.999999999999991 21.699999999999996 15.499999999999991 22.4 C 14.799999999999992 23.4 15.09999999999999 24.7 15.09999999999999 24.7 C 15.09999999999999 24.7 15.09999999999999 24.8 15.19999999999999 24.8 C 15.19999999999999 24.900000000000002 15.09999999999999 24.900000000000002 15.09999999999999 25 C 14.999999999999991 25.8 13.399999999999991 25.8 13.399999999999991 25.8 L 9.699999999999992 25.900000000000002 C 9.399999999999991 25.900000000000002 9.199999999999992 25.8 8.999999999999993 25.6 L 8.3 25 C 8 24.8 7.9 24.4 8 24 L 8.5 21.3 L 9.1 20.8 C 9.9 20.5 10.299999999999999 20.7 10.5 20.900000000000002 C 10.4 21.000000000000004 10.3 21.1 10.3 21.200000000000003 C 10.3 21.300000000000004 9.600000000000001 22.500000000000004 10.200000000000001 23.900000000000002 C 10.3 24.1 10.500000000000002 24.200000000000003 10.700000000000001 24.200000000000003 C 10.8 24.200000000000003 10.8 24.200000000000003 10.9 24.200000000000003 C 11.200000000000001 24.1 11.3 23.800000000000004 11.200000000000001 23.500000000000004 C 10.9 22.600000000000005 11.3 21.800000000000004 11.3 21.800000000000004 C 11.3 21.800000000000004 11.3 21.800000000000004 11.3 21.800000000000004 C 12.4 20.200000000000003 14 20.800000000000004 14.100000000000001 20.800000000000004 C 14.400000000000002 20.900000000000006 14.700000000000001 20.800000000000004 14.8 20.500000000000004 C 14.9 20.200000000000003 14.8 19.900000000000002 14.5 19.800000000000004 C 14.3 19.700000000000003 13.9 19.600000000000005 13.6 19.600000000000005 C 13.799999999999999 18.100000000000005 15.1 17.700000000000006 15.2 17.700000000000006 C 15.5 17.600000000000005 15.7 17.300000000000008 15.6 17.000000000000007 C 15.5 16.700000000000006 15.2 16.500000000000007 14.9 16.60000000000001 C 14.1 16.800000000000008 12.600000000000001 17.70000000000001 12.4 19.70000000000001 C 12.1 19.80000000000001 11.700000000000001 19.90000000000001 11.4 20.20000000000001 C 11.1 19.90000000000001 10.700000000000001 19.70000000000001 10.200000000000001 19.60000000000001 L 10.000000000000002 18.70000000000001 C 9.900000000000002 18.30000000000001 10.100000000000001 17.90000000000001 10.400000000000002 17.70000000000001 L 12.700000000000003 15.80000000000001 C 13.000000000000004 15.60000000000001 13.300000000000002 15.500000000000009 13.600000000000003 15.60000000000001 L 15.600000000000003 16.10000000000001 L 16.500000000000004 14.600000000000009 C 16.700000000000003 14.300000000000008 16.900000000000002 14.100000000000009 17.200000000000003 14.100000000000009 C 18.200000000000003 13.90000000000001 20.1 13.700000000000008 21.400000000000002 13.700000000000008 L 21.400000000000002 13.700000000000008 C 21.6 13.700000000000008 21.8 13.800000000000008 22.000000000000004 13.900000000000007 L 23.900000000000002 15.200000000000008 L 25.700000000000003 14.600000000000009 C 25.900000000000002 14.500000000000009 26.1 14.500000000000009 26.300000000000004 14.600000000000009 L 29.900000000000006 15.40000000000001 C 30.100000000000005 15.500000000000009 30.400000000000006 15.600000000000009 30.500000000000007 15.80000000000001 L 31.800000000000008 17.50000000000001 C 32.00000000000001 17.80000000000001 32.400000000000006 18.100000000000012 32.80000000000001 18.20000000000001 L 33.90000000000001 18.60000000000001 C 34.100000000000016 18.70000000000001 34.20000000000001 18.800000000000008 34.30000000000001 18.90000000000001 C 34.70000000000001 19.40000000000001 35.30000000000001 20.300000000000008 35.70000000000001 21.300000000000008 C 35.80000000000001 21.500000000000007 35.70000000000001 21.700000000000006 35.70000000000001 21.90000000000001 C 35.50000000000001 22.40000000000001 35.30000000000001 23.20000000000001 35.00000000000001 24.70000000000001 C 35.00000000000001 24.90000000000001 35.00000000000001 25.00000000000001 35.00000000000001 25.20000000000001 C 35.00000000000001 26.10000000000001 35.20000000000001 28.40000000000001 35.60000000000001 29.20000000000001 C 35.70000000000001 29.60000000000001 35.80000000000001 30.00000000000001 35.70000000000001 30.30000000000001 C 35.70000000000001 30.30000000000001 35.60000000000001 30.30000000000001 35.60000000000001 30.20000000000001 C 34.60000000000001 29.70000000000001 31.20000000000001 25.10000000000001 29.20000000000001 22.40000000000001 C 29.20000000000001 22.40000000000001 28.90000000000001 22.10000000000001 29.00000000000001 21.70000000000001 C 29.100000000000012 21.20000000000001 29.50000000000001 20.80000000000001 30.20000000000001 20.30000000000001 C 30.70000000000001 20.20000000000001 31.50000000000001 20.30000000000001 31.80000000000001 20.70000000000001 C 32.10000000000001 21.00000000000001 32.000000000000014 21.70000000000001 31.50000000000001 22.70000000000001 C 31.40000000000001 23.00000000000001 31.50000000000001 23.30000000000001 31.80000000000001 23.40000000000001 C 32.10000000000001 23.50000000000001 32.40000000000001 23.40000000000001 32.500000000000014 23.20000000000001 C 33.20000000000002 21.80000000000001 33.20000000000002 20.80000000000001 32.70000000000002 20.10000000000001 C 31.900000000000016 19.000000000000007 30.100000000000016 19.300000000000008 29.900000000000016 19.300000000000008 L 29.700000000000017 19.40000000000001 C 29.600000000000016 19.40000000000001 29.600000000000016 19.50000000000001 29.500000000000018 19.50000000000001 C 29.400000000000016 19.100000000000012 29.400000000000016 18.70000000000001 29.400000000000016 18.30000000000001 C 29.300000000000015 17.30000000000001 29.000000000000018 16.600000000000012 28.400000000000016 16.20000000000001 C 27.500000000000018 15.60000000000001 26.400000000000016 16.00000000000001 26.400000000000016 16.00000000000001 C 26.100000000000016 16.100000000000012 26.000000000000018 16.40000000000001 26.100000000000016 16.70000000000001 C 26.200000000000017 17.00000000000001 26.500000000000014 17.10000000000001 26.800000000000015 17.00000000000001 C 26.800000000000015 17.00000000000001 27.400000000000016 16.80000000000001 27.900000000000016 17.100000000000012 C 28.200000000000017 17.30000000000001 28.400000000000016 17.700000000000014 28.400000000000016 18.200000000000014 C 28.400000000000016 18.300000000000015 28.300000000000015 19.400000000000013 28.600000000000016 20.200000000000014 C 28.200000000000017 20.600000000000012 27.900000000000016 21.100000000000012 27.800000000000015 21.600000000000012 C 27.700000000000014 22.50000000000001 28.200000000000014 23.200000000000014 28.200000000000014 23.200000000000014 C 28.700000000000014 23.900000000000013 33.40000000000001 30.500000000000014 34.90000000000001 31.30000000000001 C 35.20000000000001 31.50000000000001 35.500000000000014 31.50000000000001 35.70000000000001 31.50000000000001 C 36.00000000000001 31.50000000000001 36.10000000000001 31.40000000000001 36.30000000000001 31.30000000000001 C 36.90000000000001 30.80000000000001 36.70000000000001 29.50000000000001 36.500000000000014 28.900000000000013 C 36.3 28.2 36.1 26.4 36.1 25.1 z" stroke-linecap="round" />
</g>
		<g transform="matrix(6.33 0 0 6.33 -13.6 -76.33)" id="11ebV9W0Sx4RIsLEmLqSo"  >
<linearGradient id="SVGID_1577" gradientUnits="userSpaceOnUse" gradientTransform="matrix(1 0 0 1 16.06 13.8)"  x1="0" y1="1.8999999999999986" x2="7.8635129588726045" y2="1.8999999999999986">
<stop offset="0%" style="stop-color:#42E695;stop-opacity: 1"/>
<stop offset="50%" style="stop-color:#66CED3;stop-opacity: 1"/>
<stop offset="100%" style="stop-color:#3BB2B8;stop-opacity: 1"/>
</linearGradient>
<path style="stroke: none; stroke-width: 1; stroke-dasharray: none; stroke-linecap: butt; stroke-dashoffset: 0; stroke-linejoin: miter; stroke-miterlimit: 4; fill: url(#SVGID_1577); fill-rule: nonzero; opacity: 1;" vector-effect="non-scaling-stroke"  transform=" translate(-19.99, -15.7)" d="M 16.8 16 C 16.5 15.9 16.2 16 16.1 16.3 C 16 16.6 16.1 16.900000000000002 16.400000000000002 17 C 16.400000000000002 17 17.000000000000004 17.2 17.8 17.2 C 18.400000000000002 17.2 19.2 17.099999999999998 19.900000000000002 16.599999999999998 C 20.000000000000004 16.7 20.200000000000003 16.9 20.400000000000002 16.999999999999996 C 20.900000000000002 17.399999999999995 21.6 17.599999999999998 22.3 17.599999999999998 C 22.7 17.599999999999998 23.1 17.499999999999996 23.5 17.4 C 23.8 17.299999999999997 24 17 23.9 16.7 C 23.799999999999997 16.4 23.5 16.2 23.2 16.3 C 22.3 16.5 21.5 16.400000000000002 20.9 16.1 C 20.7 15.900000000000002 20.5 15.8 20.4 15.600000000000001 C 20.4 15.600000000000001 20.4 15.600000000000001 20.4 15.600000000000001 C 20.4 15.600000000000001 20.4 15.600000000000001 20.4 15.600000000000001 C 20.1 15 20 14.4 20 14.3 C 20 14 19.7 13.8 19.4 13.8 C 19.099999999999998 13.8 18.9 14.100000000000001 18.9 14.4 C 18.9 14.4 19 15 19.299999999999997 15.700000000000001 C 18.1 16.4 16.9 16 16.8 16 z" stroke-linecap="round" />
</g>
		<g transform="matrix(6.33 0 0 6.33 -13.6 19.62)" id="FMe2ACLWYh5q2H9jnMMrc"  >
<linearGradient id="SVGID_1621" gradientUnits="userSpaceOnUse" gradientTransform="matrix(1 0 0 1 6.7 26.5)"  x1="0" y1="4.787500000000001" x2="26.099999999999998" y2="4.787500000000001">
<stop offset="0%" style="stop-color:rgb(92,39,116);stop-opacity: 1"/>
<stop offset="50%" style="stop-color:rgb(51,92,197);stop-opacity: 1"/>
<stop offset="100%" style="stop-color:rgb(99,127,253);stop-opacity: 1"/>
</linearGradient>
<path style="stroke: none; stroke-width: 1; stroke-dasharray: none; stroke-linecap: butt; stroke-dashoffset: 0; stroke-linejoin: miter; stroke-miterlimit: 4; fill: url(#SVGID_1621); fill-rule: nonzero; opacity: 1;" vector-effect="non-scaling-stroke"  transform=" translate(-19.75, -31.29)" d="M 6.7 26.5 L 6.7 28.7 L 21.8 36 C 22 36.1 22.2 36.1 22.3 36 L 32.8 30.6 L 31.599999999999998 29.1 L 22.099999999999998 33.800000000000004 C 21.9 33.900000000000006 21.7 33.900000000000006 21.599999999999998 33.800000000000004 L 6.7 26.5 z" stroke-linecap="round" />
</g>
		<g transform="matrix(6.33 0 0 6.33 0 44.62)" id="reCdOp75etswJbfeCozy5"  >
<linearGradient id="SVGID_1622" gradientUnits="userSpaceOnUse" gradientTransform="matrix(1 0 0 1 6.7 30.4)"  x1="0" y1="4.8375" x2="30.400000000000002" y2="4.8375">
<stop offset="0%" style="stop-color:rgb(92,39,116);stop-opacity: 1"/>
<stop offset="50%" style="stop-color:rgb(51,92,197);stop-opacity: 1"/>
<stop offset="100%" style="stop-color:rgb(99,127,253);stop-opacity: 1"/>
</linearGradient>
<path style="stroke: none; stroke-width: 1; stroke-dasharray: none; stroke-linecap: butt; stroke-dashoffset: 0; stroke-linejoin: miter; stroke-miterlimit: 4; fill: url(#SVGID_1622); fill-rule: nonzero; opacity: 1;" vector-effect="non-scaling-stroke"  transform=" translate(-21.9, -35.24)" d="M 37.1 32.5 L 22.3 40 C 22.1 40.1 21.900000000000002 40.1 21.8 40 L 6.7 32.6 L 6.7 30.400000000000002 L 21.6 37.7 C 21.8 37.800000000000004 22 37.800000000000004 22.1 37.7 L 34 31.700000000000003 C 34 31.700000000000003 36.5 33.400000000000006 37.1 31.400000000000002 L 37.1 32.5 z" stroke-linecap="round" />
</g>
		<g transform="matrix(6.33 0 0 6.33 0 68.03)" id="gjT-4Bcy5hBX7yzXf6k8n"  >
<linearGradient id="SVGID_1623" gradientUnits="userSpaceOnUse" gradientTransform="matrix(1 0 0 1 6.7 34)"  x1="0" y1="4.9375000000000036" x2="30.400000000000002" y2="4.9375000000000036">
<stop offset="0%" style="stop-color:rgb(92,39,116);stop-opacity: 1"/>
<stop offset="50%" style="stop-color:rgb(51,92,197);stop-opacity: 1"/>
<stop offset="100%" style="stop-color:rgb(99,127,253);stop-opacity: 1"/>
</linearGradient>
<path style="stroke: none; stroke-width: 1; stroke-dasharray: none; stroke-linecap: butt; stroke-dashoffset: 0; stroke-linejoin: miter; stroke-miterlimit: 4; fill: url(#SVGID_1623); fill-rule: nonzero; opacity: 1;" vector-effect="non-scaling-stroke"  transform=" translate(-21.9, -38.94)" d="M 6.7 34.3 L 6.7 36.5 L 21.8 43.8 C 22 43.9 22.2 43.9 22.3 43.8 L 37.1 36.199999999999996 L 37.1 33.99999999999999 L 22.200000000000003 41.49999999999999 C 22.000000000000004 41.599999999999994 21.800000000000004 41.599999999999994 21.700000000000003 41.49999999999999 L 6.7 34.3 z" stroke-linecap="round" />
</g>
		<g transform="matrix(6.33 0 0 6.33 1.01 -49.32)" id="d6NkQ6c0c1epDQjVnoNZz"  >
<linearGradient id="SVGID_1624" gradientUnits="userSpaceOnUse" gradientTransform="matrix(1 0 0 1 17.26 18.18)"  x1="0" y1="2.2075507653592528" x2="9.59919531247515" y2="2.2075507653592528">
<stop offset="0%" style="stop-color:rgb(92,39,116);stop-opacity: 1"/>
<stop offset="50%" style="stop-color:rgb(51,92,197);stop-opacity: 1"/>
<stop offset="100%" style="stop-color:rgb(99,127,253);stop-opacity: 1"/>
</linearGradient>
<path style="stroke: none; stroke-width: 1; stroke-dasharray: none; stroke-linecap: butt; stroke-dashoffset: 0; stroke-linejoin: miter; stroke-miterlimit: 4; fill: url(#SVGID_1624); fill-rule: nonzero; opacity: 1;" vector-effect="non-scaling-stroke"  transform=" translate(-22.06, -20.39)" d="M 22.6 20.5 C 22.6 20.4 22.6 20.4 22.6 20.5 C 22.8 20.2 23.1 20 23.5 19.8 C 23.5 19.8 25.1 19.6 25.8 20.8 C 26 21.1 26.3 21.1 26.6 21 C 26.900000000000002 20.8 26.900000000000002 20.5 26.8 20.2 C 25.6 18.3 23.5 18.599999999999998 23.2 18.7 C 22.8 18.9 22.5 19.099999999999998 22.2 19.3 C 21.2 18.5 20.2 18.1 19.3 18.2 C 18.1 18.3 17.400000000000002 19.099999999999998 17.400000000000002 19.099999999999998 C 17.200000000000003 19.299999999999997 17.200000000000003 19.7 17.500000000000004 19.9 C 17.700000000000003 20.099999999999998 18.100000000000005 20.099999999999998 18.300000000000004 19.799999999999997 C 18.300000000000004 19.799999999999997 18.700000000000003 19.299999999999997 19.400000000000006 19.299999999999997 C 20.100000000000005 19.299999999999997 20.800000000000004 19.599999999999998 21.500000000000007 20.199999999999996 C 21.10000000000001 20.899999999999995 21.000000000000007 21.699999999999996 21.10000000000001 22.099999999999994 C 21.10000000000001 22.399999999999995 21.40000000000001 22.599999999999994 21.60000000000001 22.599999999999994 C 21.60000000000001 22.599999999999994 21.60000000000001 22.599999999999994 21.70000000000001 22.599999999999994 C 22.00000000000001 22.599999999999994 22.20000000000001 22.299999999999994 22.20000000000001 21.999999999999993 C 22.1 22 22.1 21.2 22.6 20.5 C 22.6 20.5 22.6 20.5 22.6 20.5 z" stroke-linecap="round" />
</g>
		<g transform="matrix(6.33 0 0 6.33 -0.63 7.62)" id="cMT5ey338wx3AUAJPOBOZ"  >
<linearGradient id="SVGID_1625" gradientUnits="userSpaceOnUse" gradientTransform="matrix(1 0 0 1 -8.6 -2.59)"  x1="0" y1="2.5875000000000004" x2="17.2" y2="2.5875000000000004">
<stop offset="0%" style="stop-color:rgb(92,39,116);stop-opacity: 1"/>
<stop offset="50%" style="stop-color:rgb(51,92,197);stop-opacity: 1"/>
<stop offset="100%" style="stop-color:rgb(99,127,253);stop-opacity: 1"/>
</linearGradient>
<path style="stroke: none; stroke-width: 1; stroke-dasharray: none; stroke-linecap: butt; stroke-dashoffset: 0; stroke-linejoin: miter; stroke-miterlimit: 4; fill: url(#SVGID_1625); fill-rule: nonzero; opacity: 1;" vector-effect="non-scaling-stroke"  transform=" translate(0, 0)" d="M -5.9 -2.5875 L -0.20000000000000018 0.3125 C -1.6653345369377348e-16 0.4125 0.19999999999999984 0.4125 0.2999999999999998 0.3125 L 4 -1.5875 C 4 -1.5875 6.6 -0.6874999999999999 8.1 -2.3875 L 8.6 -1.6875000000000002 L 0.40000000000000036 2.5125 C 0.20000000000000034 2.6125000000000003 3.3306690738754696e-16 2.6125000000000003 -0.09999999999999964 2.5125 L -8.6 -1.6875 C -8.6 -1.7875 -6.8999999999999995 -1.8875 -5.8999999999999995 -2.5875 z" stroke-linecap="round" />
</g>
		<g transform="matrix(6.33 0 0 6.33 -0.47 -39.15)" id="wYaB9LODup_PeZpVeEmtQ"  >
<linearGradient id="SVGID_1626" gradientUnits="userSpaceOnUse" gradientTransform="matrix(1 0 0 1 6.88 12.5)"  x1="0" y1="9.500000000000005" x2="29.9" y2="9.500000000000005">
<stop offset="0%" style="stop-color:rgb(92,39,116);stop-opacity: 1"/>
<stop offset="50%" style="stop-color:rgb(51,92,197);stop-opacity: 1"/>
<stop offset="100%" style="stop-color:rgb(99,127,253);stop-opacity: 1"/>
</linearGradient>
<path style="stroke: none; stroke-width: 1; stroke-dasharray: none; stroke-linecap: butt; stroke-dashoffset: 0; stroke-linejoin: miter; stroke-miterlimit: 4; fill: url(#SVGID_1626); fill-rule: nonzero; opacity: 1;" vector-effect="non-scaling-stroke"  transform=" translate(-21.82, -22)" d="M 36.1 25.1 C 36.1 25 36.1 24.900000000000002 36.1 24.900000000000002 C 36.300000000000004 23.500000000000004 36.6 22.700000000000003 36.7 22.3 C 36.800000000000004 21.900000000000002 36.800000000000004 21.400000000000002 36.7 21 C 36.300000000000004 19.8 35.5 18.8 35.1 18.3 C 34.9 18 34.6 17.8 34.2 17.7 L 33.1 17.3 C 32.9 17.2 32.800000000000004 17.1 32.6 16.900000000000002 L 31.3 15 C 31 14.6 30.6 14.3 30.1 14.2 L 26.5 13.399999999999999 C 26.1 13.299999999999999 25.7 13.299999999999999 25.3 13.499999999999998 L 24 13.9 L 22.6 12.9 C 22.200000000000003 12.6 21.8 12.5 21.400000000000002 12.5 C 21.400000000000002 12.5 21.400000000000002 12.5 21.400000000000002 12.5 C 20.000000000000004 12.5 18.000000000000004 12.8 17 13 C 16.4 13.1 15.8 13.5 15.5 14 L 15 14.8 L 13.8 14.5 C 13.200000000000001 14.3 12.5 14.5 11.9 14.9 L 9.600000000000001 16.8 C 9.000000000000002 17.3 8.700000000000001 18.1 8.8 18.900000000000002 L 9 19.7 C 8.9 19.7 8.8 19.8 8.6 19.8 L 7.5 20.7 L 6.9 23.8 C 6.800000000000001 24.5 7 25.3 7.5 25.8 L 8 26.3 C 8.4 26.7 8.9 26.900000000000002 9.5 26.900000000000002 C 9.5 26.900000000000002 9.5 26.900000000000002 9.6 26.900000000000002 L 13.3 26.8 C 14 26.8 15.200000000000001 26.6 15.8 25.8 C 17.2 27.1 20.3 27.1 20.9 27.1 C 21.299999999999997 27.200000000000003 21.7 27.200000000000003 22.099999999999998 27.200000000000003 C 23.4 27.200000000000003 24.4 26.700000000000003 24.9 26.300000000000004 C 25.5 26.800000000000004 26.4 27.200000000000003 27.4 27.200000000000003 C 28 27.200000000000003 28.599999999999998 27.1 29.2 26.700000000000003 C 29.5 26.500000000000004 29.5 26.200000000000003 29.4 26.000000000000004 C 29.2 25.700000000000003 28.9 25.700000000000003 28.7 25.800000000000004 C 27.4 26.600000000000005 26.2 25.900000000000006 25.599999999999998 25.500000000000004 C 25.599999999999998 25.400000000000002 25.7 25.300000000000004 25.7 25.200000000000003 C 26.3 23.1 25 21.6 24.2 21.1 C 23.9 20.900000000000002 23.599999999999998 21 23.5 21.3 C 23.3 21.6 23.4 21.900000000000002 23.7 22 C 23.8 22 25.3 23 24.8 24.9 C 24.7 25.099999999999998 24.6 25.2 24.5 25.4 C 24 25.799999999999997 22.9 26.5 21.2 26.099999999999998 L 21.099999999999998 26.099999999999998 L 20.999999999999996 26.099999999999998 C 19.899999999999995 26.2 16.499999999999996 25.999999999999996 16.199999999999996 24.499999999999996 C 16.199999999999996 24.499999999999996 15.999999999999996 23.599999999999998 16.399999999999995 23.099999999999998 C 16.699999999999996 22.7 17.199999999999996 22.499999999999996 17.899999999999995 22.4 C 18.199999999999996 22.5 19.399999999999995 22.9 19.699999999999996 24.2 C 19.799999999999997 24.5 20.099999999999994 24.7 20.399999999999995 24.599999999999998 C 20.699999999999996 24.499999999999996 20.899999999999995 24.2 20.799999999999994 23.9 C 20.299999999999994 21.799999999999997 18.199999999999992 21.299999999999997 18.099999999999994 21.299999999999997 L 17.999999999999993 21.299999999999997 L 17.89999999999999 21.299999999999997 C 16.79999999999999 21.4 15.999999999999991 21.699999999999996 15.499999999999991 22.4 C 14.799999999999992 23.4 15.09999999999999 24.7 15.09999999999999 24.7 C 15.09999999999999 24.7 15.09999999999999 24.8 15.19999999999999 24.8 C 15.19999999999999 24.900000000000002 15.09999999999999 24.900000000000002 15.09999999999999 25 C 14.999999999999991 25.8 13.399999999999991 25.8 13.399999999999991 25.8 L 9.699999999999992 25.900000000000002 C 9.399999999999991 25.900000000000002 9.199999999999992 25.8 8.999999999999993 25.6 L 8.3 25 C 8 24.8 7.9 24.4 8 24 L 8.5 21.3 L 9.1 20.8 C 9.9 20.5 10.299999999999999 20.7 10.5 20.900000000000002 C 10.4 21.000000000000004 10.3 21.1 10.3 21.200000000000003 C 10.3 21.300000000000004 9.600000000000001 22.500000000000004 10.200000000000001 23.900000000000002 C 10.3 24.1 10.500000000000002 24.200000000000003 10.700000000000001 24.200000000000003 C 10.8 24.200000000000003 10.8 24.200000000000003 10.9 24.200000000000003 C 11.200000000000001 24.1 11.3 23.800000000000004 11.200000000000001 23.500000000000004 C 10.9 22.600000000000005 11.3 21.800000000000004 11.3 21.800000000000004 C 11.3 21.800000000000004 11.3 21.800000000000004 11.3 21.800000000000004 C 12.4 20.200000000000003 14 20.800000000000004 14.100000000000001 20.800000000000004 C 14.400000000000002 20.900000000000006 14.700000000000001 20.800000000000004 14.8 20.500000000000004 C 14.9 20.200000000000003 14.8 19.900000000000002 14.5 19.800000000000004 C 14.3 19.700000000000003 13.9 19.600000000000005 13.6 19.600000000000005 C 13.799999999999999 18.100000000000005 15.1 17.700000000000006 15.2 17.700000000000006 C 15.5 17.600000000000005 15.7 17.300000000000008 15.6 17.000000000000007 C 15.5 16.700000000000006 15.2 16.500000000000007 14.9 16.60000000000001 C 14.1 16.800000000000008 12.600000000000001 17.70000000000001 12.4 19.70000000000001 C 12.1 19.80000000000001 11.700000000000001 19.90000000000001 11.4 20.20000000000001 C 11.1 19.90000000000001 10.700000000000001 19.70000000000001 10.200000000000001 19.60000000000001 L 10.000000000000002 18.70000000000001 C 9.900000000000002 18.30000000000001 10.100000000000001 17.90000000000001 10.400000000000002 17.70000000000001 L 12.700000000000003 15.80000000000001 C 13.000000000000004 15.60000000000001 13.300000000000002 15.500000000000009 13.600000000000003 15.60000000000001 L 15.600000000000003 16.10000000000001 L 16.500000000000004 14.600000000000009 C 16.700000000000003 14.300000000000008 16.900000000000002 14.100000000000009 17.200000000000003 14.100000000000009 C 18.200000000000003 13.90000000000001 20.1 13.700000000000008 21.400000000000002 13.700000000000008 L 21.400000000000002 13.700000000000008 C 21.6 13.700000000000008 21.8 13.800000000000008 22.000000000000004 13.900000000000007 L 23.900000000000002 15.200000000000008 L 25.700000000000003 14.600000000000009 C 25.900000000000002 14.500000000000009 26.1 14.500000000000009 26.300000000000004 14.600000000000009 L 29.900000000000006 15.40000000000001 C 30.100000000000005 15.500000000000009 30.400000000000006 15.600000000000009 30.500000000000007 15.80000000000001 L 31.800000000000008 17.50000000000001 C 32.00000000000001 17.80000000000001 32.400000000000006 18.100000000000012 32.80000000000001 18.20000000000001 L 33.90000000000001 18.60000000000001 C 34.100000000000016 18.70000000000001 34.20000000000001 18.800000000000008 34.30000000000001 18.90000000000001 C 34.70000000000001 19.40000000000001 35.30000000000001 20.300000000000008 35.70000000000001 21.300000000000008 C 35.80000000000001 21.500000000000007 35.70000000000001 21.700000000000006 35.70000000000001 21.90000000000001 C 35.50000000000001 22.40000000000001 35.30000000000001 23.20000000000001 35.00000000000001 24.70000000000001 C 35.00000000000001 24.90000000000001 35.00000000000001 25.00000000000001 35.00000000000001 25.20000000000001 C 35.00000000000001 26.10000000000001 35.20000000000001 28.40000000000001 35.60000000000001 29.20000000000001 C 35.70000000000001 29.60000000000001 35.80000000000001 30.00000000000001 35.70000000000001 30.30000000000001 C 35.70000000000001 30.30000000000001 35.60000000000001 30.30000000000001 35.60000000000001 30.20000000000001 C 34.60000000000001 29.70000000000001 31.20000000000001 25.10000000000001 29.20000000000001 22.40000000000001 C 29.20000000000001 22.40000000000001 28.90000000000001 22.10000000000001 29.00000000000001 21.70000000000001 C 29.100000000000012 21.20000000000001 29.50000000000001 20.80000000000001 30.20000000000001 20.30000000000001 C 30.70000000000001 20.20000000000001 31.50000000000001 20.30000000000001 31.80000000000001 20.70000000000001 C 32.10000000000001 21.00000000000001 32.000000000000014 21.70000000000001 31.50000000000001 22.70000000000001 C 31.40000000000001 23.00000000000001 31.50000000000001 23.30000000000001 31.80000000000001 23.40000000000001 C 32.10000000000001 23.50000000000001 32.40000000000001 23.40000000000001 32.500000000000014 23.20000000000001 C 33.20000000000002 21.80000000000001 33.20000000000002 20.80000000000001 32.70000000000002 20.10000000000001 C 31.900000000000016 19.000000000000007 30.100000000000016 19.300000000000008 29.900000000000016 19.300000000000008 L 29.700000000000017 19.40000000000001 C 29.600000000000016 19.40000000000001 29.600000000000016 19.50000000000001 29.500000000000018 19.50000000000001 C 29.400000000000016 19.100000000000012 29.400000000000016 18.70000000000001 29.400000000000016 18.30000000000001 C 29.300000000000015 17.30000000000001 29.000000000000018 16.600000000000012 28.400000000000016 16.20000000000001 C 27.500000000000018 15.60000000000001 26.400000000000016 16.00000000000001 26.400000000000016 16.00000000000001 C 26.100000000000016 16.100000000000012 26.000000000000018 16.40000000000001 26.100000000000016 16.70000000000001 C 26.200000000000017 17.00000000000001 26.500000000000014 17.10000000000001 26.800000000000015 17.00000000000001 C 26.800000000000015 17.00000000000001 27.400000000000016 16.80000000000001 27.900000000000016 17.100000000000012 C 28.200000000000017 17.30000000000001 28.400000000000016 17.700000000000014 28.400000000000016 18.200000000000014 C 28.400000000000016 18.300000000000015 28.300000000000015 19.400000000000013 28.600000000000016 20.200000000000014 C 28.200000000000017 20.600000000000012 27.900000000000016 21.100000000000012 27.800000000000015 21.600000000000012 C 27.700000000000014 22.50000000000001 28.200000000000014 23.200000000000014 28.200000000000014 23.200000000000014 C 28.700000000000014 23.900000000000013 33.40000000000001 30.500000000000014 34.90000000000001 31.30000000000001 C 35.20000000000001 31.50000000000001 35.500000000000014 31.50000000000001 35.70000000000001 31.50000000000001 C 36.00000000000001 31.50000000000001 36.10000000000001 31.40000000000001 36.30000000000001 31.30000000000001 C 36.90000000000001 30.80000000000001 36.70000000000001 29.50000000000001 36.500000000000014 28.900000000000013 C 36.3 28.2 36.1 26.4 36.1 25.1 z" stroke-linecap="round" />
</g>
		<g transform="matrix(6.33 0 0 6.33 -13.57 -76.33)" id="PT9EFKn7GURgv7eSUonMX"  >
<linearGradient id="SVGID_1627" gradientUnits="userSpaceOnUse" gradientTransform="matrix(1 0 0 1 16.06 13.8)"  x1="0" y1="1.8999999999999986" x2="7.8635129588726045" y2="1.8999999999999986">
<stop offset="0%" style="stop-color:rgb(92,39,116);stop-opacity: 1"/>
<stop offset="50%" style="stop-color:rgb(51,92,197);stop-opacity: 1"/>
<stop offset="100%" style="stop-color:rgb(99,127,253);stop-opacity: 1"/>
</linearGradient>
<path style="stroke: none; stroke-width: 1; stroke-dasharray: none; stroke-linecap: butt; stroke-dashoffset: 0; stroke-linejoin: miter; stroke-miterlimit: 4; fill: url(#SVGID_1627); fill-rule: nonzero; opacity: 1;" vector-effect="non-scaling-stroke"  transform=" translate(-19.99, -15.7)" d="M 16.8 16 C 16.5 15.9 16.2 16 16.1 16.3 C 16 16.6 16.1 16.900000000000002 16.400000000000002 17 C 16.400000000000002 17 17.000000000000004 17.2 17.8 17.2 C 18.400000000000002 17.2 19.2 17.099999999999998 19.900000000000002 16.599999999999998 C 20.000000000000004 16.7 20.200000000000003 16.9 20.400000000000002 16.999999999999996 C 20.900000000000002 17.399999999999995 21.6 17.599999999999998 22.3 17.599999999999998 C 22.7 17.599999999999998 23.1 17.499999999999996 23.5 17.4 C 23.8 17.299999999999997 24 17 23.9 16.7 C 23.799999999999997 16.4 23.5 16.2 23.2 16.3 C 22.3 16.5 21.5 16.400000000000002 20.9 16.1 C 20.7 15.900000000000002 20.5 15.8 20.4 15.600000000000001 C 20.4 15.600000000000001 20.4 15.600000000000001 20.4 15.600000000000001 C 20.4 15.600000000000001 20.4 15.600000000000001 20.4 15.600000000000001 C 20.1 15 20 14.4 20 14.3 C 20 14 19.7 13.8 19.4 13.8 C 19.099999999999998 13.8 18.9 14.100000000000001 18.9 14.4 C 18.9 14.4 19 15 19.299999999999997 15.700000000000001 C 18.1 16.4 16.9 16 16.8 16 z" stroke-linecap="round" />
</g>
</g>
</g>
</svg>